<svg xmlns="http://www.w3.org/2000/svg" width="512" height="512"><svg xmlns="http://www.w3.org/2000/svg" width="512" height="512" fill="none" stroke="#110802" stroke-linecap="round" stroke-linejoin="round" stroke-width="1.5" viewBox="0 0 24 24"><path stroke="none" d="M0 0h24v24H0z"/><path fill="oklch(0.4912 0.3096 275.75)" d="m3.604 7.197 7.138-3.109a.96.96 0 0 1 1.27.527l4.924 11.902a1 1 0 0 1-.514 1.304L9.285 20.93a.96.96 0 0 1-1.271-.527L3.09 8.5a1 1 0 0 1 .514-1.304z"/><path d="M15 4h1a1 1 0 0 1 1 1v3.5M20 6c.264.112.52.217.768.315a1 1 0 0 1 .53 1.311L19 13"/></svg><style>@media (prefers-color-scheme:light){:root{filter:none}}@media (prefers-color-scheme:dark){:root{filter:none}}</style></svg>