<svg xmlns="http://www.w3.org/2000/svg" class="icon icon-tabler icon-tabler-cards" width="512" height="512" viewBox="0 0 24 24" stroke-width="1.5" stroke="#110802" fill="none" stroke-linecap="round" stroke-linejoin="round">
    <style>
        @import url('https://fonts.googleapis.com/css2?family=Roboto:wght@900');

        .tilda-text {
        font-family: 'Roboto', sans-serif;
        font-size: 8px;
        fill: #110802;
        }
    </style>
    <path stroke="none" d="M0 0h24v24H0z" fill="#db924b"/>
    <g transform="scale(0.8) translate(3, -2)"> <!-- Scale down to 80% and move up -->
        <path d="M3.604 7.197l7.138 -3.109a.96 .96 0 0 1 1.27 .527l4.924 11.902a1 1 0 0 1 -.514 1.304l-7.137 3.109a.96 .96 0 0 1 -1.271 -.527l-4.924 -11.903a1 1 0 0 1 .514 -1.304z" />
        <path d="M15 4h1a1 1 0 0 1 1 1v3.5" />
        <path d="M20 6c.264 .112 .52 .217 .768 .315a1 1 0 0 1 .53 1.311l-2.298 5.374" />
    </g>
    <text x="50%" y="80%" dominant-baseline="middle" text-anchor="middle" font-size="10" font-weight="lighter" fill="#110802" stroke="#db924b" stroke-width="0.3"
    class="tilda-text"
    >Tilda</text>
</svg>