<svg version="1.1" id="Isolation_Mode" xmlns="http://www.w3.org/2000/svg" x="0" y="0" viewBox="0 0 510.5 182.7" style="enable-background:new 0 0 510.5 182.7" xml:space="preserve"><style>.st0{fill:#d61c22}.st1{fill:#009e44}</style><path class="st0" d="M126.7 41.5H183v20.1h-33.2v14.3h27.6v19.9h-27.6v31.4h-23.1zM218.6 96.3h-4.4v30.8H191V41.5h33.5c15.5 0 29.5 5.3 29.5 25.8 0 10.9-5.2 18.8-13.2 24.1l20.5 35.8h-25.4l-17.3-30.9zm1.6-17.2c6.1 0 9.3-3.4 9.3-9.9 0-7-3.4-9.1-9.1-9.1h-6.2v19.1h6zM266.9 41.5h56.4v20.1h-33.4v12.3h27.7v19.9h-27.8v13.1h35.9v20.3h-58.8zM386.2 64.4c-6.1-2.6-16-4.6-21.2-4.6-5.6 0-7.8 2.4-7.8 5.7 0 4 3.8 5.4 11 7.8 13.9 4.5 25.8 9.3 25.8 26.5 0 19.3-13.2 29-32.3 29-12.3 0-25.7-3.8-31.4-7.4l6.1-19.2c6.2 3.1 17.6 6.5 25.1 6.5 5.8 0 8.5-2.8 8.5-7 0-5.3-4-6.8-10.3-8.6-15.9-4.6-26.5-9.7-26.5-26.5 0-18.1 14-26.6 31.6-26.6 8.5 0 19.6 1.9 27 5.4l-5.6 19zM452 41.5h23v85.7h-23V95.7h-25.6v31.5h-23V41.5h23v32.8H452z"/><path class="st1" d="M100.3 9.8C92.4 20.5 87.7 33.7 87.7 48c0 2.3.1 4.6.4 6.9 3.9 4.6 7.3 9.7 9.8 15.2 7.1-10.9 11.2-23.8 11.2-37.8.2-6.5-1.1-10.9.3-17.4 1.2-5.2 2.4-8.8 8.4-14.5-7-.9-16.1-.5-26.4 4.6C78.5 11.4 69 23.8 66.7 38.5c4.3 2 8.3 4.6 12 7.4 3-14.4 10.8-27 21.6-36.1"/><path class="st1" d="M33.6 78.7c13.9 17.2 32.7 27.4 54.8 28.8-9.5-26.5-33.8-45.8-63-48 1.8-.1 3.6-.3 5.4-.3C57.9 59.2 81.4 74 93.9 96c2 3.6 5.1 13.1 4.2 22.4-1.8 10-3.5 12.2-5.2 15.5-.6 1.1-1.7 2.9-2.1 3.6-1.3 2.3.8 3.3 3 .5 7.1-11.1 9.6-23.3 9.6-33.1 0-34.2-27.6-61.9-61.7-61.9-8 0-15.6 1.6-22.6 4.3-6.5 2.5-12.9 6-19.1 11.8 17 2.4 26.1 10.2 33.6 19.6M500.8 171.9l9.7-18.8h-6.7l-6 12.7h-.2l-5.4-12.7h-6.9l9.2 18.9v10h6.3v-10.1zM462.6 182v-20.6l.2-.1 11.7 20.7h6.7v-29h-6v19l-.3.1-10.4-19h-8v29h6.1zm-12.9-28.9h-6.3v29h6.3v-29zm-37-.1 9 29h8.1l9.3-29h-6.4l-6.7 23h-.3l-6.5-23h-6.5zm-13.1 5.9h.3l3.2 11.1H396l3.6-11.1zm-3.7-5.8-10.1 29h6.6l2.5-7.3h9.4l2.4 7.3h6.8l-9.7-29h-7.9zm-29.3 13.1v-8.4h3c2.7 0 4.4.8 4.4 4 0 3-1.7 4.4-4.4 4.4h-3zM376 182h7.1l-8-12.5c3.4-1.4 5.7-4.2 5.7-8.2 0-6.5-4.7-8.3-9.9-8.3h-10.6v29h6.3v-11.4h2.4l7 11.4zm-35.5-23.7V182h6.3v-23.8h9.1V153h-24.4v5.2h9zm-26.3-.6c5.6 0 8 3.9 8 10.3 0 5.7-2.4 9.4-7.4 9.4-6.7 0-8-5.9-8-10.6 0-5.8 2.7-9.1 7.4-9.1m.2 25c9.6 0 14.5-5.7 14.5-15.6 0-9-5.5-14.8-14-14.8-9.4 0-14.6 6.2-14.6 14.9-.1 8.9 4.2 15.5 14.1 15.5m-32-14.9v-10h2.8c2.8 0 4.7 1.3 4.7 4.7 0 3.4-1.4 5.3-5.4 5.3h-2.1zm-6.3-14.7v29h6.3v-9.4h2.5c6.5 0 11.5-2.9 11.5-10.6 0-6.1-3.8-9-10.4-9h-9.9zM238.6 182h21.9v-7.4H248v-4h9.7v-7.1H248v-3.9h11.7v-7.3h-21.2V182zm-5.9-29.7H223V182h9.7v-29.7zm-25.1-9.4-5.4-5-4.1 3.2 6.7 8.5h5.3l7.1-8.4-4.2-3.4-5.4 5.1zm10.1 10.5c-2.9-1.2-7.1-1.7-10.3-1.7-6.7 0-11.8 3.1-11.8 9.7 0 5.1 3.3 7.4 9.3 9.1 2.5.8 3.7 1.2 3.7 2.5 0 1.1-.6 1.8-3.1 1.8-2.4 0-6.1-.9-8.9-2.2l-2.2 7.5c2.2 1.2 7.3 2.4 11.7 2.4 7.1 0 12-3.5 12-10 0-5.6-4-7.7-9.4-9.4-2.2-.7-3.3-1.2-3.3-2.3 0-.9.9-1.6 2.7-1.6 2.2 0 5.1.7 7.6 1.5l2-7.3zm-53.9-1.1 8.5 29.7h12.6l8.6-29.7h-9.9l-3.9 16.6-.7 4.7h-.4l-.7-4.7-4-16.6h-10.1zm-14.9 7.6h.4l2.1 9.7h-5l2.5-9.7zm-6.2-7.6-9.4 29.7h9.9l1.6-5.4h7.9l1.5 5.4h10.4l-9.3-29.7h-12.6zM113.8 166v-7h1.6c1.5 0 2.7.6 2.7 3.4 0 2.6-1 3.7-2.8 3.7h-1.5zm6.5 16h10.6l-7.4-12.1c3-1.8 4.7-4.4 4.7-8.3 0-7.6-5.2-9.4-11-9.4h-12.9V182h9.6v-10.3h.9l5.5 10.3zm-30.4-15c0 5-1.5 7.4-5.5 7.4h-1.8v-14.6h1.6c3.5.1 5.7 1.3 5.7 7.2m-4.8 15c7.8 0 14.6-3.8 14.6-15.8 0-11-7.3-14-15.2-14H73V182h12.1zm-42.5 0H68v-7.6H55.6v-.2L68 158.6v-6.3H43.2v7.6H55v.2l-12.3 15.6v6.3z"/></svg>